<svg version="1.1" viewBox="0.0 0.0 600.0 371.0" fill="none" stroke="none" stroke-linecap="square" stroke-miterlimit="10" width="600" height="371" xmlns:xlink="http://www.w3.org/1999/xlink" xmlns="http://www.w3.org/2000/svg"><path fill="#ffffff" d="M0 0L600.0 0L600.0 371.0L0 371.0L0 0Z" fill-rule="nonzero"/><path stroke="#333333" stroke-width="1.0" stroke-linecap="butt" d="M84.5 300.5L581.5 300.5" fill-rule="nonzero"/><path stroke="#cccccc" stroke-width="1.0" stroke-linecap="butt" d="M84.5 240.5L581.5 240.5" fill-rule="nonzero"/><path stroke="#cccccc" stroke-width="1.0" stroke-linecap="butt" d="M84.5 181.5L581.5 181.5" fill-rule="nonzero"/><path stroke="#cccccc" stroke-width="1.0" stroke-linecap="butt" d="M84.5 121.5L581.5 121.5" fill-rule="nonzero"/><path stroke="#cccccc" stroke-width="1.0" stroke-linecap="butt" d="M84.5 61.5L581.5 61.5" fill-rule="nonzero"/><clipPath id="id_0"><path d="M84.55 61.916668L581.45 61.916668L581.45 300.45L84.55 300.45L84.55 61.916668Z" clip-rule="nonzero"/></clipPath><path stroke="#000000" stroke-width="2.0" stroke-linecap="butt" stroke-opacity="0.0" clip-path="url(#id_0)" d="M177.0 300.0L117.0 300.0L117.0 259.0C117.0 257.89542 117.89543 257.0 119.0 257.0L175.0 257.0C176.10457 257.0 177.0 257.89542 177.0 259.0Z" fill-rule="nonzero"/><path fill="#4285f4" clip-path="url(#id_0)" d="M177.0 300.0L117.0 300.0L117.0 259.0C117.0 257.89542 117.89543 257.0 119.0 257.0L175.0 257.0C176.10457 257.0 177.0 257.89542 177.0 259.0Z" fill-rule="nonzero"/><path stroke="#000000" stroke-width="2.0" stroke-linecap="butt" stroke-opacity="0.0" clip-path="url(#id_0)" d="M270.0 300.0L210.0 300.0L210.0 118.0C210.0 116.89543 210.89543 116.0 212.0 116.0L268.0 116.0C269.10458 116.0 270.0 116.89543 270.0 118.0Z" fill-rule="nonzero"/><path fill="#4285f4" clip-path="url(#id_0)" d="M270.0 300.0L210.0 300.0L210.0 118.0C210.0 116.89543 210.89543 116.0 212.0 116.0L268.0 116.0C269.10458 116.0 270.0 116.89543 270.0 118.0Z" fill-rule="nonzero"/><path stroke="#000000" stroke-width="2.0" stroke-linecap="butt" stroke-opacity="0.0" clip-path="url(#id_0)" d="M363.0 300.0L303.0 300.0L303.0 115.0C303.0 113.89543 303.89542 113.0 305.0 113.0L361.0 113.0C362.10458 113.0 363.0 113.89543 363.0 115.0Z" fill-rule="nonzero"/><path fill="#4285f4" clip-path="url(#id_0)" d="M363.0 300.0L303.0 300.0L303.0 115.0C303.0 113.89543 303.89542 113.0 305.0 113.0L361.0 113.0C362.10458 113.0 363.0 113.89543 363.0 115.0Z" fill-rule="nonzero"/><path stroke="#000000" stroke-width="2.0" stroke-linecap="butt" stroke-opacity="0.0" clip-path="url(#id_0)" d="M456.0 300.0L396.0 300.0L396.0 285.0C396.0 283.89542 396.89542 283.0 398.0 283.0L454.0 283.0C455.10458 283.0 456.0 283.89542 456.0 285.0Z" fill-rule="nonzero"/><path fill="#4285f4" clip-path="url(#id_0)" d="M456.0 300.0L396.0 300.0L396.0 285.0C396.0 283.89542 396.89542 283.0 398.0 283.0L454.0 283.0C455.10458 283.0 456.0 283.89542 456.0 285.0Z" fill-rule="nonzero"/><path stroke="#000000" stroke-width="2.0" stroke-linecap="butt" stroke-opacity="0.0" clip-path="url(#id_0)" d="M549.0 300.0L489.0 300.0L489.0 181.0C489.0 179.89543 489.89542 179.0 491.0 179.0L547.0 179.0C548.10455 179.0 549.0 179.89543 549.0 181.0Z" fill-rule="nonzero"/><path fill="#4285f4" clip-path="url(#id_0)" d="M549.0 300.0L489.0 300.0L489.0 181.0C489.0 179.89543 489.89542 179.0 491.0 179.0L547.0 179.0C548.10455 179.0 549.0 179.89543 549.0 181.0Z" fill-rule="nonzero"/><path fill="#000000" d="M302.98438 349.45L302.98438 340.85626L308.78125 340.85626L308.78125 341.8719L304.125 341.8719L304.125 344.52814L308.15625 344.52814L308.15625 345.54376L304.125 345.54376L304.125 349.45L302.98438 349.45ZM309.78125 349.45L309.78125 343.23126L310.73438 343.23126L310.73438 344.16876Q311.09375 343.5125 311.39062 343.3094Q311.70312 343.09064 312.07812 343.09064Q312.60938 343.09064 313.15625 343.41876L312.79688 344.40314Q312.40625 344.16876 312.03125 344.16876Q311.67188 344.16876 311.39062 344.3875Q311.125 344.59064 311.01562 344.96564Q310.82812 345.52814 310.82812 346.1844L310.82812 349.45L309.78125 349.45ZM317.85938 348.6844Q317.26562 349.1844 316.71875 349.3875Q316.1875 349.59064 315.5625 349.59064Q314.53125 349.59064 313.98438 349.09064Q313.4375 348.59064 313.4375 347.8094Q313.4375 347.35626 313.64062 346.98126Q313.84375 346.59064 314.1875 346.3719Q314.53125 346.1375 314.95312 346.02814Q315.25 345.9344 315.89062 345.85626Q317.15625 345.71564 317.76562 345.4969Q317.76562 345.27814 317.76562 345.23126Q317.76562 344.575 317.46875 344.3094Q317.0625 343.96564 316.26562 343.96564Q315.53125 343.96564 315.17188 344.23126Q314.8125 344.48126 314.64062 345.1375L313.60938 344.9969Q313.75 344.34064 314.07812 343.9344Q314.40625 343.52814 315.01562 343.3094Q315.625 343.09064 316.42188 343.09064Q317.21875 343.09064 317.71875 343.27814Q318.21875 343.46564 318.45312 343.7469Q318.6875 344.02814 318.78125 344.46564Q318.82812 344.73126 318.82812 345.4344L318.82812 346.84064Q318.82812 348.3094 318.89062 348.7Q318.96875 349.09064 319.17188 349.45L318.0625 349.45Q317.90625 349.1219 317.85938 348.6844ZM317.76562 346.325Q317.1875 346.5594 316.04688 346.73126Q315.39062 346.825 315.125 346.95Q314.85938 347.0594 314.70312 347.27814Q314.5625 347.4969 314.5625 347.77814Q314.5625 348.2 314.875 348.48126Q315.20312 348.7625 315.8125 348.7625Q316.42188 348.7625 316.89062 348.4969Q317.375 348.23126 317.59375 347.7625Q317.76562 347.40314 317.76562 346.71564L317.76562 346.325ZM320.79688 349.45L320.79688 343.23126L321.73438 343.23126L321.73438 344.10626Q322.03125 343.6375 322.51562 343.3719Q323.0 343.09064 323.625 343.09064Q324.3125 343.09064 324.75 343.3719Q325.20312 343.65314 325.375 344.16876Q326.125 343.09064 327.29688 343.09064Q328.23438 343.09064 328.71875 343.60626Q329.21875 344.10626 329.21875 345.1844L329.21875 349.45L328.17188 349.45L328.17188 345.52814Q328.17188 344.90314 328.0625 344.6219Q327.96875 344.34064 327.70312 344.16876Q327.4375 343.9969 327.0625 343.9969Q326.40625 343.9969 325.96875 344.4344Q325.54688 344.8719 325.54688 345.84064L325.54688 349.45L324.48438 349.45L324.48438 345.40314Q324.48438 344.7 324.21875 344.35626Q323.96875 343.9969 323.39062 343.9969Q322.9375 343.9969 322.5625 344.23126Q322.1875 344.46564 322.01562 344.91876Q321.84375 345.3719 321.84375 346.21564L321.84375 349.45L320.79688 349.45ZM336.04688 347.45L337.14062 347.575Q336.89062 348.52814 336.1875 349.0594Q335.48438 349.59064 334.40625 349.59064Q333.04688 349.59064 332.23438 348.7469Q331.4375 347.90314 331.4375 346.3875Q331.4375 344.825 332.25 343.96564Q333.0625 343.09064 334.34375 343.09064Q335.59375 343.09064 336.375 343.9344Q337.17188 344.77814 337.17188 346.325Q337.17188 346.41876 337.17188 346.60626L332.53125 346.60626Q332.59375 347.6375 333.10938 348.1844Q333.625 348.71564 334.40625 348.71564Q334.98438 348.71564 335.39062 348.41876Q335.8125 348.10626 336.04688 347.45ZM332.59375 345.7469L336.0625 345.7469Q336.0 344.95 335.67188 344.5594Q335.15625 343.95 334.35938 343.95Q333.625 343.95 333.125 344.4344Q332.64062 344.91876 332.59375 345.7469ZM339.9375 349.45L338.03125 343.23126L339.125 343.23126L340.10938 346.825L340.48438 348.15314Q340.51562 348.0594 340.8125 346.8719L341.79688 343.23126L342.875 343.23126L343.8125 346.84064L344.125 348.02814L344.48438 346.825L345.54688 343.23126L346.57812 343.23126L344.625 349.45L343.53125 349.45L342.54688 345.71564L342.29688 344.66876L341.04688 349.45L339.9375 349.45ZM347.40625 346.34064Q347.40625 344.60626 348.35938 343.77814Q349.15625 343.09064 350.3125 343.09064Q351.59375 343.09064 352.40625 343.9344Q353.23438 344.7625 353.23438 346.2469Q353.23438 347.45 352.875 348.1375Q352.51562 348.825 351.8125 349.21564Q351.125 349.59064 350.3125 349.59064Q349.01562 349.59064 348.20312 348.7625Q347.40625 347.91876 347.40625 346.34064ZM348.48438 346.34064Q348.48438 347.52814 349.0 348.1219Q349.53125 348.71564 350.3125 348.71564Q351.10938 348.71564 351.625 348.1219Q352.14062 347.52814 352.14062 346.3094Q352.14062 345.15314 351.60938 344.5594Q351.09375 343.96564 350.3125 343.96564Q349.53125 343.96564 349.0 344.5594Q348.48438 345.1375 348.48438 346.34064ZM354.78125 349.45L354.78125 343.23126L355.73438 343.23126L355.73438 344.16876Q356.09375 343.5125 356.39062 343.3094Q356.70312 343.09064 357.07812 343.09064Q357.60938 343.09064 358.15625 343.41876L357.79688 344.40314Q357.40625 344.16876 357.03125 344.16876Q356.67188 344.16876 356.39062 344.3875Q356.125 344.59064 356.01562 344.96564Q355.82812 345.52814 355.82812 346.1844L355.82812 349.45L354.78125 349.45ZM358.79688 349.45L358.79688 340.85626L359.85938 340.85626L359.85938 345.7625L362.34375 343.23126L363.71875 343.23126L361.32812 345.52814L363.95312 349.45L362.65625 349.45L360.59375 346.2625L359.85938 346.98126L359.85938 349.45L358.79688 349.45Z" fill-rule="nonzero"/><path fill="#000000" d="M29.550013 199.24583L20.956263 199.24583L20.956263 195.43333Q20.956263 194.27708 21.190638 193.68333Q21.425013 193.08958 22.018763 192.73021Q22.596888 192.37083 23.300013 192.37083Q24.221888 192.37083 24.846888 192.96458Q25.471888 193.55833 25.643763 194.79271Q25.862513 194.33958 26.065638 194.10521Q26.518763 193.60521 27.206263 193.16771L29.550013 191.66771L29.550013 193.10521L27.768763 194.23021Q26.987513 194.73021 26.581263 195.05833Q26.175013 195.37083 26.018763 195.63646Q25.846888 195.88646 25.768763 196.15208Q25.737513 196.33958 25.737513 196.77708L25.737513 198.10521L29.550013 198.10521L29.550013 199.24583ZM24.753138 198.10521L24.753138 195.65208Q24.753138 194.88646 24.596888 194.44896Q24.425013 193.99583 24.081263 193.77708Q23.721888 193.54271 23.300013 193.54271Q22.690638 193.54271 22.300013 193.99583Q21.909388 194.43333 21.909388 195.38646L21.909388 198.10521L24.753138 198.10521ZM29.550013 190.26146L20.956263 190.26146L20.956263 187.01146Q20.956263 186.16771 21.034388 185.71458Q21.143763 185.07396 21.440638 184.65208Q21.737513 184.21458 22.268763 183.96458Q22.800013 183.69896 23.440638 183.69896Q24.534388 183.69896 25.300013 184.40208Q26.050013 185.08958 26.050013 186.91771L26.050013 189.12083L29.550013 189.12083L29.550013 190.26146ZM25.050013 189.12083L25.050013 186.90208Q25.050013 185.79271 24.643763 185.33958Q24.221888 184.87083 23.471888 184.87083Q22.940638 184.87083 22.565638 185.15208Q22.175013 185.41771 22.050013 185.85521Q21.971888 186.15208 21.971888 186.91771L21.971888 189.12083L25.050013 189.12083ZM26.784388 182.63646L26.690638 181.57396Q27.346888 181.49583 27.753138 181.21458Q28.159388 180.93333 28.425013 180.35521Q28.675013 179.76146 28.675013 179.02708Q28.675013 178.38646 28.487513 177.88646Q28.284388 177.38646 27.956263 177.15208Q27.612513 176.90208 27.221888 176.90208Q26.815638 176.90208 26.518763 177.13646Q26.206263 177.37083 26.003138 177.90208Q25.862513 178.26146 25.581263 179.44896Q25.300013 180.62083 25.050013 181.08958Q24.721888 181.71458 24.253138 182.01146Q23.768763 182.30833 23.175013 182.30833Q22.534388 182.30833 21.971888 181.94896Q21.393763 181.57396 21.112513 180.87083Q20.815638 180.15208 20.815638 179.29271Q20.815638 178.33958 21.128138 177.60521Q21.425013 176.87083 22.034388 176.48021Q22.628138 176.08958 23.378138 176.05833L23.456263 177.15208Q22.643763 177.24583 22.237513 177.76146Q21.815638 178.26146 21.815638 179.24583Q21.815638 180.27708 22.190638 180.74583Q22.565638 181.21458 23.096888 181.21458Q23.565638 181.21458 23.862513 180.88646Q24.159388 180.55833 24.471888 179.18333Q24.784388 177.79271 25.018763 177.27708Q25.378138 176.52708 25.909388 176.16771Q26.425013 175.80833 27.128138 175.80833Q27.815638 175.80833 28.425013 176.19896Q29.018763 176.58958 29.362513 177.32396Q29.690638 178.05833 29.690638 178.98021Q29.690638 180.15208 29.362513 180.94896Q29.018763 181.73021 28.331263 182.18333Q27.643763 182.62083 26.784388 182.63646Z" fill-rule="nonzero"/><path fill="#000000" d="M72.05 300.21564Q72.05 298.6844 72.3625 297.7625Q72.675 296.825 73.28438 296.325Q73.90938 295.825 74.84688 295.825Q75.53438 295.825 76.05 296.10626Q76.58125 296.3875 76.925 296.91876Q77.26875 297.4344 77.45625 298.1844Q77.64375 298.9344 77.64375 300.21564Q77.64375 301.73126 77.33125 302.65314Q77.03438 303.575 76.40938 304.09064Q75.8 304.59064 74.84688 304.59064Q73.6125 304.59064 72.89375 303.7Q72.05 302.6375 72.05 300.21564ZM73.12813 300.21564Q73.12813 302.325 73.62813 303.02814Q74.12813 303.73126 74.84688 303.73126Q75.58125 303.73126 76.06563 303.02814Q76.56563 302.325 76.56563 300.21564Q76.56563 298.09064 76.06563 297.40314Q75.58125 296.7 74.83125 296.7Q74.1125 296.7 73.675 297.3094Q73.12813 298.09064 73.12813 300.21564Z" fill-rule="nonzero"/><path fill="#000000" d="M58.05 242.56667L59.159374 242.47292Q59.284374 243.28542 59.721874 243.69167Q60.175 244.09792 60.815624 244.09792Q61.565624 244.09792 62.096874 243.51979Q62.628124 242.94167 62.628124 242.00417Q62.628124 241.09792 62.1125 240.58229Q61.6125 240.05104 60.784374 240.05104Q60.284374 240.05104 59.8625 240.28542Q59.45625 240.51979 59.221874 240.87917L58.2375 240.75417L59.065624 236.34792L63.346874 236.34792L63.346874 237.34792L59.909374 237.34792L59.45625 239.66042Q60.221874 239.11354 61.065624 239.11354Q62.190624 239.11354 62.95625 239.89479Q63.7375 240.67604 63.7375 241.91042Q63.7375 243.06667 63.065624 243.92604Q62.2375 244.95729 60.815624 244.95729Q59.64375 244.95729 58.89375 244.30104Q58.159374 243.64479 58.05 242.56667ZM65.05 240.58229Q65.05 239.05104 65.3625 238.12917Q65.675 237.19167 66.28438 236.69167Q66.90938 236.19167 67.84688 236.19167Q68.53438 236.19167 69.05 236.47292Q69.58125 236.75417 69.925 237.28542Q70.26875 237.80104 70.45625 238.55104Q70.64375 239.30104 70.64375 240.58229Q70.64375 242.09792 70.33125 243.01979Q70.03438 243.94167 69.40938 244.45729Q68.8 244.95729 67.84688 244.95729Q66.6125 244.95729 65.89375 244.06667Q65.05 243.00417 65.05 240.58229ZM66.12813 240.58229Q66.12813 242.69167 66.62813 243.39479Q67.12813 244.09792 67.84688 244.09792Q68.58125 244.09792 69.06563 243.39479Q69.56563 242.69167 69.56563 240.58229Q69.56563 238.45729 69.06563 237.76979Q68.58125 237.06667 67.83125 237.06667Q67.1125 237.06667 66.675 237.67604Q66.12813 238.45729 66.12813 240.58229ZM72.05 240.58229Q72.05 239.05104 72.3625 238.12917Q72.675 237.19167 73.28438 236.69167Q73.90938 236.19167 74.84688 236.19167Q75.53438 236.19167 76.05 236.47292Q76.58125 236.75417 76.925 237.28542Q77.26875 237.80104 77.45625 238.55104Q77.64375 239.30104 77.64375 240.58229Q77.64375 242.09792 77.33125 243.01979Q77.03438 243.94167 76.40938 244.45729Q75.8 244.95729 74.84688 244.95729Q73.6125 244.95729 72.89375 244.06667Q72.05 243.00417 72.05 240.58229ZM73.12813 240.58229Q73.12813 242.69167 73.62813 243.39479Q74.12813 244.09792 74.84688 244.09792Q75.58125 244.09792 76.06563 243.39479Q76.56563 242.69167 76.56563 240.58229Q76.56563 238.45729 76.06563 237.76979Q75.58125 237.06667 74.83125 237.06667Q74.1125 237.06667 73.675 237.67604Q73.12813 238.45729 73.12813 240.58229Z" fill-rule="nonzero"/><path fill="#000000" d="M55.01875 185.18333L53.971874 185.18333L53.971874 178.46458Q53.58125 178.82396 52.95625 179.19896Q52.346874 179.55833 51.8625 179.73021L51.8625 178.71458Q52.7375 178.29271 53.39375 177.71458Q54.065624 177.12083 54.346874 176.55833L55.01875 176.55833L55.01875 185.18333ZM58.05 180.94896Q58.05 179.41771 58.3625 178.49583Q58.675 177.55833 59.284374 177.05833Q59.909374 176.55833 60.846874 176.55833Q61.534374 176.55833 62.05 176.83958Q62.58125 177.12083 62.925 177.65208Q63.26875 178.16771 63.45625 178.91771Q63.64375 179.66771 63.64375 180.94896Q63.64375 182.46458 63.33125 183.38646Q63.034374 184.30833 62.409374 184.82396Q61.8 185.32396 60.846874 185.32396Q59.6125 185.32396 58.89375 184.43333Q58.05 183.37083 58.05 180.94896ZM59.128124 180.94896Q59.128124 183.05833 59.628124 183.76146Q60.128124 184.46458 60.846874 184.46458Q61.58125 184.46458 62.065624 183.76146Q62.565624 183.05833 62.565624 180.94896Q62.565624 178.82396 62.065624 178.13646Q61.58125 177.43333 60.83125 177.43333Q60.1125 177.43333 59.675 178.04271Q59.128124 178.82396 59.128124 180.94896ZM65.05 180.94896Q65.05 179.41771 65.3625 178.49583Q65.675 177.55833 66.28438 177.05833Q66.90938 176.55833 67.84688 176.55833Q68.53438 176.55833 69.05 176.83958Q69.58125 177.12083 69.925 177.65208Q70.26875 178.16771 70.45625 178.91771Q70.64375 179.66771 70.64375 180.94896Q70.64375 182.46458 70.33125 183.38646Q70.03438 184.30833 69.40938 184.82396Q68.8 185.32396 67.84688 185.32396Q66.6125 185.32396 65.89375 184.43333Q65.05 183.37083 65.05 180.94896ZM66.12813 180.94896Q66.12813 183.05833 66.62813 183.76146Q67.12813 184.46458 67.84688 184.46458Q68.58125 184.46458 69.06563 183.76146Q69.56563 183.05833 69.56563 180.94896Q69.56563 178.82396 69.06563 178.13646Q68.58125 177.43333 67.83125 177.43333Q67.1125 177.43333 66.675 178.04271Q66.12813 178.82396 66.12813 180.94896ZM72.05 180.94896Q72.05 179.41771 72.3625 178.49583Q72.675 177.55833 73.28438 177.05833Q73.90938 176.55833 74.84688 176.55833Q75.53438 176.55833 76.05 176.83958Q76.58125 177.12083 76.925 177.65208Q77.26875 178.16771 77.45625 178.91771Q77.64375 179.66771 77.64375 180.94896Q77.64375 182.46458 77.33125 183.38646Q77.03438 184.30833 76.40938 184.82396Q75.8 185.32396 74.84688 185.32396Q73.6125 185.32396 72.89375 184.43333Q72.05 183.37083 72.05 180.94896ZM73.12813 180.94896Q73.12813 183.05833 73.62813 183.76146Q74.12813 184.46458 74.84688 184.46458Q75.58125 184.46458 76.06563 183.76146Q76.56563 183.05833 76.56563 180.94896Q76.56563 178.82396 76.06563 178.13646Q75.58125 177.43333 74.83125 177.43333Q74.1125 177.43333 73.675 178.04271Q73.12813 178.82396 73.12813 180.94896Z" fill-rule="nonzero"/><path fill="#000000" d="M55.01875 125.55L53.971874 125.55L53.971874 118.83125Q53.58125 119.19063 52.95625 119.56563Q52.346874 119.925 51.8625 120.09688L51.8625 119.08125Q52.7375 118.65938 53.39375 118.08125Q54.065624 117.4875 54.346874 116.925L55.01875 116.925L55.01875 125.55ZM58.05 123.3L59.159374 123.20625Q59.284374 124.01875 59.721874 124.425Q60.175 124.83125 60.815624 124.83125Q61.565624 124.83125 62.096874 124.25313Q62.628124 123.675 62.628124 122.7375Q62.628124 121.83125 62.1125 121.31563Q61.6125 120.78438 60.784374 120.78438Q60.284374 120.78438 59.8625 121.01875Q59.45625 121.25313 59.221874 121.6125L58.2375 121.4875L59.065624 117.08125L63.346874 117.08125L63.346874 118.08125L59.909374 118.08125L59.45625 120.39375Q60.221874 119.84688 61.065624 119.84688Q62.190624 119.84688 62.95625 120.62813Q63.7375 121.40938 63.7375 122.64375Q63.7375 123.8 63.065624 124.65938Q62.2375 125.69063 60.815624 125.69063Q59.64375 125.69063 58.89375 125.03438Q58.159374 124.37813 58.05 123.3ZM65.05 121.31563Q65.05 119.78438 65.3625 118.8625Q65.675 117.925 66.28438 117.425Q66.90938 116.925 67.84688 116.925Q68.53438 116.925 69.05 117.20625Q69.58125 117.4875 69.925 118.01875Q70.26875 118.53438 70.45625 119.28438Q70.64375 120.03438 70.64375 121.31563Q70.64375 122.83125 70.33125 123.75313Q70.03438 124.675 69.40938 125.19063Q68.8 125.69063 67.84688 125.69063Q66.6125 125.69063 65.89375 124.8Q65.05 123.7375 65.05 121.31563ZM66.12813 121.31563Q66.12813 123.425 66.62813 124.12813Q67.12813 124.83125 67.84688 124.83125Q68.58125 124.83125 69.06563 124.12813Q69.56563 123.425 69.56563 121.31563Q69.56563 119.19063 69.06563 118.50313Q68.58125 117.8 67.83125 117.8Q67.1125 117.8 66.675 118.40938Q66.12813 119.19063 66.12813 121.31563ZM72.05 121.31563Q72.05 119.78438 72.3625 118.8625Q72.675 117.925 73.28438 117.425Q73.90938 116.925 74.84688 116.925Q75.53438 116.925 76.05 117.20625Q76.58125 117.4875 76.925 118.01875Q77.26875 118.53438 77.45625 119.28438Q77.64375 120.03438 77.64375 121.31563Q77.64375 122.83125 77.33125 123.75313Q77.03438 124.675 76.40938 125.19063Q75.8 125.69063 74.84688 125.69063Q73.6125 125.69063 72.89375 124.8Q72.05 123.7375 72.05 121.31563ZM73.12813 121.31563Q73.12813 123.425 73.62813 124.12813Q74.12813 124.83125 74.84688 124.83125Q75.58125 124.83125 76.06563 124.12813Q76.56563 123.425 76.56563 121.31563Q76.56563 119.19063 76.06563 118.50313Q75.58125 117.8 74.83125 117.8Q74.1125 117.8 73.675 118.40938Q73.12813 119.19063 73.12813 121.31563Z" fill-rule="nonzero"/><path fill="#000000" d="M56.596874 64.90104L56.596874 65.916664L50.909374 65.916664Q50.909374 65.541664 51.034374 65.18229Q51.253124 64.604164 51.721874 64.041664Q52.20625 63.479164 53.1125 62.74479Q54.51875 61.58854 55.003124 60.916664Q55.503124 60.24479 55.503124 59.65104Q55.503124 59.02604 55.05 58.604164Q54.596874 58.166664 53.878124 58.166664Q53.1125 58.166664 52.659374 58.61979Q52.20625 59.072914 52.190624 59.885414L51.1125 59.77604Q51.221874 58.55729 51.940624 57.93229Q52.675 57.291664 53.909374 57.291664Q55.14375 57.291664 55.8625 57.979164Q56.58125 58.666664 56.58125 59.68229Q56.58125 60.197914 56.3625 60.697914Q56.159374 61.18229 55.659374 61.74479Q55.175 62.291664 54.05 63.24479Q53.096874 64.041664 52.815624 64.33854Q52.55 64.61979 52.378124 64.90104L56.596874 64.90104ZM58.05 61.68229Q58.05 60.15104 58.3625 59.229164Q58.675 58.291664 59.284374 57.791664Q59.909374 57.291664 60.846874 57.291664Q61.534374 57.291664 62.05 57.572914Q62.58125 57.854164 62.925 58.385414Q63.26875 58.90104 63.45625 59.65104Q63.64375 60.40104 63.64375 61.68229Q63.64375 63.197914 63.33125 64.11979Q63.034374 65.041664 62.409374 65.55729Q61.8 66.05729 60.846874 66.05729Q59.6125 66.05729 58.89375 65.166664Q58.05 64.104164 58.05 61.68229ZM59.128124 61.68229Q59.128124 63.791664 59.628124 64.49479Q60.128124 65.197914 60.846874 65.197914Q61.58125 65.197914 62.065624 64.49479Q62.565624 63.791664 62.565624 61.68229Q62.565624 59.55729 62.065624 58.86979Q61.58125 58.166664 60.83125 58.166664Q60.1125 58.166664 59.675 58.77604Q59.128124 59.55729 59.128124 61.68229ZM65.05 61.68229Q65.05 60.15104 65.3625 59.229164Q65.675 58.291664 66.28438 57.791664Q66.90938 57.291664 67.84688 57.291664Q68.53438 57.291664 69.05 57.572914Q69.58125 57.854164 69.925 58.385414Q70.26875 58.90104 70.45625 59.65104Q70.64375 60.40104 70.64375 61.68229Q70.64375 63.197914 70.33125 64.11979Q70.03438 65.041664 69.40938 65.55729Q68.8 66.05729 67.84688 66.05729Q66.6125 66.05729 65.89375 65.166664Q65.05 64.104164 65.05 61.68229ZM66.12813 61.68229Q66.12813 63.791664 66.62813 64.49479Q67.12813 65.197914 67.84688 65.197914Q68.58125 65.197914 69.06563 64.49479Q69.56563 63.791664 69.56563 61.68229Q69.56563 59.55729 69.06563 58.86979Q68.58125 58.166664 67.83125 58.166664Q67.1125 58.166664 66.675 58.77604Q66.12813 59.55729 66.12813 61.68229ZM72.05 61.68229Q72.05 60.15104 72.3625 59.229164Q72.675 58.291664 73.28438 57.791664Q73.90938 57.291664 74.84688 57.291664Q75.53438 57.291664 76.05 57.572914Q76.58125 57.854164 76.925 58.385414Q77.26875 58.90104 77.45625 59.65104Q77.64375 60.40104 77.64375 61.68229Q77.64375 63.197914 77.33125 64.11979Q77.03438 65.041664 76.40938 65.55729Q75.8 66.05729 74.84688 66.05729Q73.6125 66.05729 72.89375 65.166664Q72.05 64.104164 72.05 61.68229ZM73.12813 61.68229Q73.12813 63.791664 73.62813 64.49479Q74.12813 65.197914 74.84688 65.197914Q75.58125 65.197914 76.06563 64.49479Q76.56563 63.791664 76.56563 61.68229Q76.56563 59.55729 76.06563 58.86979Q75.58125 58.166664 74.83125 58.166664Q74.1125 58.166664 73.675 58.77604Q73.12813 59.55729 73.12813 61.68229Z" fill-rule="nonzero"/><path fill="#000000" d="M128.11798 317.45L128.11798 308.85626L129.2586 308.85626L129.2586 316.4344L133.49298 316.4344L133.49298 317.45L128.11798 317.45ZM139.10236 316.6844Q138.5086 317.1844 137.96173 317.3875Q137.43048 317.59064 136.80548 317.59064Q135.77423 317.59064 135.22736 317.09064Q134.68048 316.59064 134.68048 315.8094Q134.68048 315.35626 134.8836 314.98126Q135.08673 314.59064 135.43048 314.3719Q135.77423 314.1375 136.1961 314.02814Q136.49298 313.9344 137.1336 313.85626Q138.39923 313.71564 139.0086 313.4969Q139.0086 313.27814 139.0086 313.23126Q139.0086 312.575 138.71173 312.3094Q138.30548 311.96564 137.5086 311.96564Q136.77423 311.96564 136.41486 312.23126Q136.05548 312.48126 135.8836 313.1375L134.85236 312.9969Q134.99298 312.34064 135.3211 311.9344Q135.64923 311.52814 136.2586 311.3094Q136.86798 311.09064 137.66486 311.09064Q138.46173 311.09064 138.96173 311.27814Q139.46173 311.46564 139.6961 311.7469Q139.93048 312.02814 140.02423 312.46564Q140.0711 312.73126 140.0711 313.4344L140.0711 314.84064Q140.0711 316.3094 140.1336 316.7Q140.21173 317.09064 140.41486 317.45L139.30548 317.45Q139.14923 317.1219 139.10236 316.6844ZM139.0086 314.325Q138.43048 314.5594 137.28986 314.73126Q136.6336 314.825 136.36798 314.95Q136.10236 315.0594 135.9461 315.27814Q135.80548 315.4969 135.80548 315.77814Q135.80548 316.2 136.11798 316.48126Q136.4461 316.7625 137.05548 316.7625Q137.66486 316.7625 138.1336 316.4969Q138.61798 316.23126 138.83673 315.7625Q139.0086 315.40314 139.0086 314.71564L139.0086 314.325ZM142.02423 317.45L142.02423 311.23126L142.97736 311.23126L142.97736 312.16876Q143.33673 311.5125 143.6336 311.3094Q143.9461 311.09064 144.3211 311.09064Q144.85236 311.09064 145.39923 311.41876L145.03986 312.40314Q144.64923 312.16876 144.27423 312.16876Q143.91486 312.16876 143.6336 312.3875Q143.36798 312.59064 143.2586 312.96564Q143.0711 313.52814 143.0711 314.1844L143.0711 317.45L142.02423 317.45ZM150.10236 316.6844Q149.5086 317.1844 148.96173 317.3875Q148.43048 317.59064 147.80548 317.59064Q146.77423 317.59064 146.22736 317.09064Q145.68048 316.59064 145.68048 315.8094Q145.68048 315.35626 145.8836 314.98126Q146.08673 314.59064 146.43048 314.3719Q146.77423 314.1375 147.1961 314.02814Q147.49298 313.9344 148.1336 313.85626Q149.39923 313.71564 150.0086 313.4969Q150.0086 313.27814 150.0086 313.23126Q150.0086 312.575 149.71173 312.3094Q149.30548 311.96564 148.5086 311.96564Q147.77423 311.96564 147.41486 312.23126Q147.05548 312.48126 146.8836 313.1375L145.85236 312.9969Q145.99298 312.34064 146.3211 311.9344Q146.64923 311.52814 147.2586 311.3094Q147.86798 311.09064 148.66486 311.09064Q149.46173 311.09064 149.96173 311.27814Q150.46173 311.46564 150.6961 311.7469Q150.93048 312.02814 151.02423 312.46564Q151.0711 312.73126 151.0711 313.4344L151.0711 314.84064Q151.0711 316.3094 151.1336 316.7Q151.21173 317.09064 151.41486 317.45L150.30548 317.45Q150.14923 317.1219 150.10236 316.6844ZM150.0086 314.325Q149.43048 314.5594 148.28986 314.73126Q147.6336 314.825 147.36798 314.95Q147.10236 315.0594 146.9461 315.27814Q146.80548 315.4969 146.80548 315.77814Q146.80548 316.2 147.11798 316.48126Q147.4461 316.7625 148.05548 316.7625Q148.66486 316.7625 149.1336 316.4969Q149.61798 316.23126 149.83673 315.7625Q150.0086 315.40314 150.0086 314.71564L150.0086 314.325ZM154.7586 317.45L152.39923 311.23126L153.5086 311.23126L154.85236 314.95Q155.05548 315.5594 155.24298 316.2Q155.3836 315.71564 155.6336 315.02814L157.02423 311.23126L158.10236 311.23126L155.74298 317.45L154.7586 317.45ZM162.28986 315.45L163.3836 315.575Q163.1336 316.52814 162.43048 317.0594Q161.72736 317.59064 160.64923 317.59064Q159.28986 317.59064 158.47736 316.7469Q157.68048 315.90314 157.68048 314.3875Q157.68048 312.825 158.49298 311.96564Q159.30548 311.09064 160.58673 311.09064Q161.83673 311.09064 162.61798 311.9344Q163.41486 312.77814 163.41486 314.325Q163.41486 314.41876 163.41486 314.60626L158.77423 314.60626Q158.83673 315.6375 159.35236 316.1844Q159.86798 316.71564 160.64923 316.71564Q161.22736 316.71564 161.6336 316.41876Q162.05548 316.10626 162.28986 315.45ZM158.83673 313.7469L162.30548 313.7469Q162.24298 312.95 161.91486 312.5594Q161.39923 311.95 160.60236 311.95Q159.86798 311.95 159.36798 312.4344Q158.8836 312.91876 158.83673 313.7469ZM165.0086 317.45L165.0086 308.85626L166.0711 308.85626L166.0711 317.45L165.0086 317.45Z" fill-rule="nonzero"/><path fill="#000000" d="M195.99649 317.45L195.99649 308.85626L197.13712 308.85626L197.13712 316.4344L201.37149 316.4344L201.37149 317.45L195.99649 317.45ZM206.98087 316.6844Q206.38712 317.1844 205.84024 317.3875Q205.30899 317.59064 204.68399 317.59064Q203.65274 317.59064 203.10587 317.09064Q202.55899 316.59064 202.55899 315.8094Q202.55899 315.35626 202.76212 314.98126Q202.96524 314.59064 203.30899 314.3719Q203.65274 314.1375 204.07462 314.02814Q204.37149 313.9344 205.01212 313.85626Q206.27774 313.71564 206.88712 313.4969Q206.88712 313.27814 206.88712 313.23126Q206.88712 312.575 206.59024 312.3094Q206.18399 311.96564 205.38712 311.96564Q204.65274 311.96564 204.29337 312.23126Q203.93399 312.48126 203.76212 313.1375L202.73087 312.9969Q202.87149 312.34064 203.19962 311.9344Q203.52774 311.52814 204.13712 311.3094Q204.74649 311.09064 205.54337 311.09064Q206.34024 311.09064 206.84024 311.27814Q207.34024 311.46564 207.57462 311.7469Q207.80899 312.02814 207.90274 312.46564Q207.94962 312.73126 207.94962 313.4344L207.94962 314.84064Q207.94962 316.3094 208.01212 316.7Q208.09024 317.09064 208.29337 317.45L207.18399 317.45Q207.02774 317.1219 206.98087 316.6844ZM206.88712 314.325Q206.30899 314.5594 205.16837 314.73126Q204.51212 314.825 204.24649 314.95Q203.98087 315.0594 203.82462 315.27814Q203.68399 315.4969 203.68399 315.77814Q203.68399 316.2 203.99649 316.48126Q204.32462 316.7625 204.93399 316.7625Q205.54337 316.7625 206.01212 316.4969Q206.49649 316.23126 206.71524 315.7625Q206.88712 315.40314 206.88712 314.71564L206.88712 314.325ZM209.90274 317.45L209.90274 311.23126L210.85587 311.23126L210.85587 312.16876Q211.21524 311.5125 211.51212 311.3094Q211.82462 311.09064 212.19962 311.09064Q212.73087 311.09064 213.27774 311.41876L212.91837 312.40314Q212.52774 312.16876 212.15274 312.16876Q211.79337 312.16876 211.51212 312.3875Q211.24649 312.59064 211.13712 312.96564Q210.94962 313.52814 210.94962 314.1844L210.94962 317.45L209.90274 317.45ZM217.98087 316.6844Q217.38712 317.1844 216.84024 317.3875Q216.30899 317.59064 215.68399 317.59064Q214.65274 317.59064 214.10587 317.09064Q213.55899 316.59064 213.55899 315.8094Q213.55899 315.35626 213.76212 314.98126Q213.96524 314.59064 214.30899 314.3719Q214.65274 314.1375 215.07462 314.02814Q215.37149 313.9344 216.01212 313.85626Q217.27774 313.71564 217.88712 313.4969Q217.88712 313.27814 217.88712 313.23126Q217.88712 312.575 217.59024 312.3094Q217.18399 311.96564 216.38712 311.96564Q215.65274 311.96564 215.29337 312.23126Q214.93399 312.48126 214.76212 313.1375L213.73087 312.9969Q213.87149 312.34064 214.19962 311.9344Q214.52774 311.52814 215.13712 311.3094Q215.74649 311.09064 216.54337 311.09064Q217.34024 311.09064 217.84024 311.27814Q218.34024 311.46564 218.57462 311.7469Q218.80899 312.02814 218.90274 312.46564Q218.94962 312.73126 218.94962 313.4344L218.94962 314.84064Q218.94962 316.3094 219.01212 316.7Q219.09024 317.09064 219.29337 317.45L218.18399 317.45Q218.02774 317.1219 217.98087 316.6844ZM217.88712 314.325Q217.30899 314.5594 216.16837 314.73126Q215.51212 314.825 215.24649 314.95Q214.98087 315.0594 214.82462 315.27814Q214.68399 315.4969 214.68399 315.77814Q214.68399 316.2 214.99649 316.48126Q215.32462 316.7625 215.93399 316.7625Q216.54337 316.7625 217.01212 316.4969Q217.49649 316.23126 217.71524 315.7625Q217.88712 315.40314 217.88712 314.71564L217.88712 314.325ZM222.63712 317.45L220.27774 311.23126L221.38712 311.23126L222.73087 314.95Q222.93399 315.5594 223.12149 316.2Q223.26212 315.71564 223.51212 315.02814L224.90274 311.23126L225.98087 311.23126L223.62149 317.45L222.63712 317.45ZM230.16837 315.45L231.26212 315.575Q231.01212 316.52814 230.30899 317.0594Q229.60587 317.59064 228.52774 317.59064Q227.16837 317.59064 226.35587 316.7469Q225.55899 315.90314 225.55899 314.3875Q225.55899 312.825 226.37149 311.96564Q227.18399 311.09064 228.46524 311.09064Q229.71524 311.09064 230.49649 311.9344Q231.29337 312.77814 231.29337 314.325Q231.29337 314.41876 231.29337 314.60626L226.65274 314.60626Q226.71524 315.6375 227.23087 316.1844Q227.74649 316.71564 228.52774 316.71564Q229.10587 316.71564 229.51212 316.41876Q229.93399 316.10626 230.16837 315.45ZM226.71524 313.7469L230.18399 313.7469Q230.12149 312.95 229.79337 312.5594Q229.27774 311.95 228.48087 311.95Q227.74649 311.95 227.24649 312.4344Q226.76212 312.91876 226.71524 313.7469ZM232.88712 317.45L232.88712 308.85626L233.94962 308.85626L233.94962 317.45L232.88712 317.45ZM240.93399 319.98126Q240.05899 318.8719 239.44962 317.40314Q238.85587 315.91876 238.85587 314.34064Q238.85587 312.95 239.29337 311.66876Q239.82462 310.1844 240.93399 308.71564L241.68399 308.71564Q240.98087 309.9344 240.74649 310.45Q240.38712 311.2625 240.18399 312.1375Q239.93399 313.23126 239.93399 314.34064Q239.93399 317.16876 241.68399 319.98126L240.93399 319.98126ZM242.69962 313.2625Q242.69962 311.1219 243.84024 309.91876Q244.99649 308.7 246.80899 308.7Q248.01212 308.7 248.96524 309.27814Q249.91837 309.84064 250.41837 310.85626Q250.91837 311.8719 250.91837 313.16876Q250.91837 314.46564 250.38712 315.4969Q249.85587 316.52814 248.88712 317.0594Q247.93399 317.59064 246.80899 317.59064Q245.59024 317.59064 244.63712 317.0125Q243.68399 316.41876 243.18399 315.41876Q242.69962 314.40314 242.69962 313.2625ZM243.87149 313.27814Q243.87149 314.84064 244.69962 315.73126Q245.54337 316.6219 246.80899 316.6219Q248.09024 316.6219 248.91837 315.73126Q249.74649 314.825 249.74649 313.15314Q249.74649 312.10626 249.38712 311.325Q249.04337 310.54376 248.35587 310.1219Q247.66837 309.6844 246.82462 309.6844Q245.62149 309.6844 244.74649 310.5125Q243.87149 311.34064 243.87149 313.27814ZM255.98087 315.16876L257.01212 315.3094Q256.84024 316.3719 256.13712 316.98126Q255.43399 317.59064 254.41837 317.59064Q253.13712 317.59064 252.35587 316.7625Q251.59024 315.91876 251.59024 314.35626Q251.59024 313.35626 251.91837 312.60626Q252.26212 311.84064 252.93399 311.46564Q253.62149 311.09064 254.43399 311.09064Q255.43399 311.09064 256.07462 311.60626Q256.73087 312.10626 256.91837 313.0594L255.88712 313.21564Q255.74649 312.59064 255.37149 312.27814Q254.99649 311.95 254.46524 311.95Q253.66837 311.95 253.16837 312.52814Q252.66837 313.09064 252.66837 314.325Q252.66837 315.59064 253.15274 316.15314Q253.63712 316.71564 254.40274 316.71564Q255.02774 316.71564 255.43399 316.34064Q255.85587 315.96564 255.98087 315.16876ZM260.21524 316.5125L260.3715 317.4344Q259.91837 317.52814 259.57462 317.52814Q258.9965 317.52814 258.684 317.35626Q258.3715 317.16876 258.23087 316.8719Q258.10587 316.575 258.10587 315.6219L258.10587 312.04376L257.34024 312.04376L257.34024 311.23126L258.10587 311.23126L258.10587 309.6844L259.15274 309.0594L259.15274 311.23126L260.21524 311.23126L260.21524 312.04376L259.15274 312.04376L259.15274 315.6844Q259.15274 316.1375 259.19962 316.2625Q259.26212 316.3875 259.38712 316.46564Q259.51212 316.54376 259.7465 316.54376Q259.934 316.54376 260.21524 316.5125ZM264.98087 316.6844Q264.38712 317.1844 263.84024 317.3875Q263.309 317.59064 262.684 317.59064Q261.65274 317.59064 261.10587 317.09064Q260.559 316.59064 260.559 315.8094Q260.559 315.35626 260.76212 314.98126Q260.96524 314.59064 261.309 314.3719Q261.65274 314.1375 262.07462 314.02814Q262.3715 313.9344 263.01212 313.85626Q264.27774 313.71564 264.88712 313.4969Q264.88712 313.27814 264.88712 313.23126Q264.88712 312.575 264.59024 312.3094Q264.184 311.96564 263.38712 311.96564Q262.65274 311.96564 262.29337 312.23126Q261.934 312.48126 261.76212 313.1375L260.73087 312.9969Q260.8715 312.34064 261.19962 311.9344Q261.52774 311.52814 262.13712 311.3094Q262.7465 311.09064 263.54337 311.09064Q264.34024 311.09064 264.84024 311.27814Q265.34024 311.46564 265.57462 311.7469Q265.809 312.02814 265.90274 312.46564Q265.94962 312.73126 265.94962 313.4344L265.94962 314.84064Q265.94962 316.3094 266.01212 316.7Q266.09024 317.09064 266.29337 317.45L265.184 317.45Q265.02774 317.1219 264.98087 316.6844ZM264.88712 314.325Q264.309 314.5594 263.16837 314.73126Q262.51212 314.825 262.2465 314.95Q261.98087 315.0594 261.82462 315.27814Q261.684 315.4969 261.684 315.77814Q261.684 316.2 261.9965 316.48126Q262.32462 316.7625 262.934 316.7625Q263.54337 316.7625 264.01212 316.4969Q264.4965 316.23126 264.71524 315.7625Q264.88712 315.40314 264.88712 314.71564L264.88712 314.325ZM267.91837 317.45L267.91837 311.23126L268.85587 311.23126L268.85587 312.10626Q269.54337 311.09064 270.84024 311.09064Q271.40274 311.09064 271.8715 311.29376Q272.35587 311.4969 272.59024 311.825Q272.82462 312.15314 272.91837 312.59064Q272.96524 312.8875 272.96524 313.6219L272.96524 317.45L271.91837 317.45L271.91837 313.66876Q271.91837 313.0125 271.79337 312.7Q271.66837 312.3875 271.35587 312.2Q271.04337 311.9969 270.6215 311.9969Q269.94962 311.9969 269.44962 312.4344Q268.96524 312.85626 268.96524 314.04376L268.96524 317.45L267.91837 317.45ZM279.16837 315.45L280.26212 315.575Q280.01212 316.52814 279.309 317.0594Q278.60587 317.59064 277.52774 317.59064Q276.16837 317.59064 275.35587 316.7469Q274.559 315.90314 274.559 314.3875Q274.559 312.825 275.3715 311.96564Q276.184 311.09064 277.46524 311.09064Q278.71524 311.09064 279.4965 311.9344Q280.29337 312.77814 280.29337 314.325Q280.29337 314.41876 280.29337 314.60626L275.65274 314.60626Q275.71524 315.6375 276.23087 316.1844Q276.7465 316.71564 277.52774 316.71564Q278.10587 316.71564 278.51212 316.41876Q278.934 316.10626 279.16837 315.45ZM275.71524 313.7469L279.184 313.7469Q279.1215 312.95 278.79337 312.5594Q278.27774 311.95 277.48087 311.95Q276.7465 311.95 276.2465 312.4344Q275.76212 312.91876 275.71524 313.7469ZM282.60587 319.98126L281.85587 319.98126Q283.60587 317.16876 283.60587 314.34064Q283.60587 313.2469 283.35587 312.15314Q283.15274 311.27814 282.79337 310.46564Q282.559 309.95 281.85587 308.71564L282.60587 308.71564Q283.69962 310.1844 284.23087 311.66876Q284.684 312.95 284.684 314.34064Q284.684 315.91876 284.07462 317.40314Q283.46524 318.8719 282.60587 319.98126Z" fill-rule="nonzero"/><path fill="#000000" d="M314.375 317.45L314.375 308.85626L315.51562 308.85626L315.51562 316.4344L319.75 316.4344L319.75 317.45L314.375 317.45ZM325.375 317.45L325.375 316.52814Q324.64062 317.59064 323.39062 317.59064Q322.84375 317.59064 322.35938 317.3875Q321.89062 317.16876 321.65625 316.85626Q321.42188 316.52814 321.32812 316.0594Q321.26562 315.7625 321.26562 315.075L321.26562 311.23126L322.32812 311.23126L322.32812 314.6844Q322.32812 315.4969 322.39062 315.79376Q322.48438 316.2 322.79688 316.45Q323.125 316.6844 323.60938 316.6844Q324.07812 316.6844 324.48438 316.45Q324.90625 316.2 325.07812 315.77814Q325.26562 315.35626 325.26562 314.5594L325.26562 311.23126L326.3125 311.23126L326.3125 317.45L325.375 317.45ZM328.29688 317.45L328.29688 311.23126L329.23438 311.23126L329.23438 312.10626Q329.53125 311.6375 330.01562 311.3719Q330.5 311.09064 331.125 311.09064Q331.8125 311.09064 332.25 311.3719Q332.70312 311.65314 332.875 312.16876Q333.625 311.09064 334.79688 311.09064Q335.73438 311.09064 336.21875 311.60626Q336.71875 312.10626 336.71875 313.1844L336.71875 317.45L335.67188 317.45L335.67188 313.52814Q335.67188 312.90314 335.5625 312.6219Q335.46875 312.34064 335.20312 312.16876Q334.9375 311.9969 334.5625 311.9969Q333.90625 311.9969 333.46875 312.4344Q333.04688 312.8719 333.04688 313.84064L333.04688 317.45L331.98438 317.45L331.98438 313.40314Q331.98438 312.7 331.71875 312.35626Q331.46875 311.9969 330.89062 311.9969Q330.4375 311.9969 330.0625 312.23126Q329.6875 312.46564 329.51562 312.91876Q329.34375 313.3719 329.34375 314.21564L329.34375 317.45L328.29688 317.45ZM343.54688 315.45L344.64062 315.575Q344.39062 316.52814 343.6875 317.0594Q342.98438 317.59064 341.90625 317.59064Q340.54688 317.59064 339.73438 316.7469Q338.9375 315.90314 338.9375 314.3875Q338.9375 312.825 339.75 311.96564Q340.5625 311.09064 341.84375 311.09064Q343.09375 311.09064 343.875 311.9344Q344.67188 312.77814 344.67188 314.325Q344.67188 314.41876 344.67188 314.60626L340.03125 314.60626Q340.09375 315.6375 340.60938 316.1844Q341.125 316.71564 341.90625 316.71564Q342.48438 316.71564 342.89062 316.41876Q343.3125 316.10626 343.54688 315.45ZM340.09375 313.7469L343.5625 313.7469Q343.5 312.95 343.17188 312.5594Q342.65625 311.95 341.85938 311.95Q341.125 311.95 340.625 312.4344Q340.14062 312.91876 340.09375 313.7469ZM346.29688 317.45L346.29688 311.23126L347.23438 311.23126L347.23438 312.10626Q347.92188 311.09064 349.21875 311.09064Q349.78125 311.09064 350.25 311.29376Q350.73438 311.4969 350.96875 311.825Q351.20312 312.15314 351.29688 312.59064Q351.34375 312.8875 351.34375 313.6219L351.34375 317.45L350.29688 317.45L350.29688 313.66876Q350.29688 313.0125 350.17188 312.7Q350.04688 312.3875 349.73438 312.2Q349.42188 311.9969 349.0 311.9969Q348.32812 311.9969 347.82812 312.4344Q347.34375 312.85626 347.34375 314.04376L347.34375 317.45L346.29688 317.45Z" fill-rule="nonzero"/><path fill="#000000" d="M403.42538 314.6844L404.48788 314.59064Q404.566 315.2469 404.84726 315.65314Q405.1285 316.0594 405.70663 316.325Q406.30038 316.575 407.03476 316.575Q407.67538 316.575 408.17538 316.3875Q408.67538 316.1844 408.90976 315.85626Q409.15976 315.5125 409.15976 315.1219Q409.15976 314.71564 408.92538 314.41876Q408.691 314.10626 408.15976 313.90314Q407.80038 313.7625 406.61288 313.48126Q405.441 313.2 404.97226 312.95Q404.34726 312.6219 404.05038 312.15314Q403.7535 311.66876 403.7535 311.075Q403.7535 310.4344 404.11288 309.8719Q404.48788 309.29376 405.191 309.0125Q405.90976 308.71564 406.76913 308.71564Q407.72226 308.71564 408.45663 309.02814Q409.191 309.325 409.58163 309.9344Q409.97226 310.52814 410.0035 311.27814L408.90976 311.35626Q408.816 310.54376 408.30038 310.1375Q407.80038 309.71564 406.816 309.71564Q405.78476 309.71564 405.316 310.09064Q404.84726 310.46564 404.84726 310.9969Q404.84726 311.46564 405.17538 311.7625Q405.5035 312.0594 406.8785 312.3719Q408.26913 312.6844 408.78476 312.91876Q409.53476 313.27814 409.89413 313.8094Q410.2535 314.325 410.2535 315.02814Q410.2535 315.71564 409.86288 316.325Q409.47226 316.91876 408.73788 317.2625Q408.0035 317.59064 407.08163 317.59064Q405.90976 317.59064 405.11288 317.2625Q404.33163 316.91876 403.8785 316.23126Q403.441 315.54376 403.42538 314.6844ZM411.6285 319.84064L411.5035 318.85626Q411.84726 318.95 412.11288 318.95Q412.45663 318.95 412.65976 318.825Q412.8785 318.71564 413.01913 318.5125Q413.11288 318.34064 413.34726 317.71564Q413.36288 317.6375 413.441 317.46564L411.066 311.23126L412.20663 311.23126L413.5035 314.825Q413.7535 315.5125 413.95663 316.27814Q414.14413 315.54376 414.39413 314.85626L415.72226 311.23126L416.76913 311.23126L414.40976 317.5594Q414.01913 318.575 413.816 318.96564Q413.53476 319.4969 413.15976 319.73126Q412.80038 319.98126 412.30038 319.98126Q412.0035 319.98126 411.6285 319.84064ZM416.67538 317.45L416.67538 311.23126L417.61288 311.23126L417.61288 312.10626Q417.90976 311.6375 418.39413 311.3719Q418.8785 311.09064 419.5035 311.09064Q420.191 311.09064 420.6285 311.3719Q421.08163 311.65314 421.2535 312.16876Q422.0035 311.09064 423.17538 311.09064Q424.11288 311.09064 424.59726 311.60626Q425.09726 312.10626 425.09726 313.1844L425.09726 317.45L424.05038 317.45L424.05038 313.52814Q424.05038 312.90314 423.941 312.6219Q423.84726 312.34064 423.58163 312.16876Q423.316 311.9969 422.941 311.9969Q422.28476 311.9969 421.84726 312.4344Q421.42538 312.8719 421.42538 313.84064L421.42538 317.45L420.36288 317.45L420.36288 313.40314Q420.36288 312.7 420.09726 312.35626Q419.84726 311.9969 419.26913 311.9969Q418.816 311.9969 418.441 312.23126Q418.066 312.46564 417.89413 312.91876Q417.72226 313.3719 417.72226 314.21564L417.72226 317.45L416.67538 317.45ZM427.92538 317.45L427.92538 312.04376L426.98788 312.04376L426.98788 311.23126L427.92538 311.23126L427.92538 310.5594Q427.92538 309.9344 428.03476 309.6375Q428.191 309.21564 428.566 308.96564Q428.95663 308.71564 429.64413 308.71564Q430.09726 308.71564 430.6285 308.825L430.47226 309.73126Q430.14413 309.6844 429.84726 309.6844Q429.36288 309.6844 429.15976 309.8875Q428.97226 310.09064 428.97226 310.65314L428.97226 311.23126L430.191 311.23126L430.191 312.04376L428.97226 312.04376L428.97226 317.45L427.92538 317.45ZM430.28476 314.34064Q430.28476 312.60626 431.23788 311.77814Q432.03476 311.09064 433.191 311.09064Q434.47226 311.09064 435.28476 311.9344Q436.11288 312.7625 436.11288 314.2469Q436.11288 315.45 435.7535 316.1375Q435.39413 316.825 434.691 317.21564Q434.0035 317.59064 433.191 317.59064Q431.89413 317.59064 431.08163 316.7625Q430.28476 315.91876 430.28476 314.34064ZM431.36288 314.34064Q431.36288 315.52814 431.8785 316.1219Q432.40976 316.71564 433.191 316.71564Q433.98788 316.71564 434.5035 316.1219Q435.01913 315.52814 435.01913 314.3094Q435.01913 313.15314 434.48788 312.5594Q433.97226 311.96564 433.191 311.96564Q432.40976 311.96564 431.8785 312.5594Q431.36288 313.1375 431.36288 314.34064ZM437.67538 317.45L437.67538 311.23126L438.61288 311.23126L438.61288 312.10626Q439.30038 311.09064 440.59726 311.09064Q441.15976 311.09064 441.6285 311.29376Q442.11288 311.4969 442.34726 311.825Q442.58163 312.15314 442.67538 312.59064Q442.72226 312.8875 442.72226 313.6219L442.72226 317.45L441.67538 317.45L441.67538 313.66876Q441.67538 313.0125 441.55038 312.7Q441.42538 312.3875 441.11288 312.2Q440.80038 311.9969 440.3785 311.9969Q439.70663 311.9969 439.20663 312.4344Q438.72226 312.85626 438.72226 314.04376L438.72226 317.45L437.67538 317.45ZM444.6285 319.84064L444.5035 318.85626Q444.84726 318.95 445.11288 318.95Q445.45663 318.95 445.65976 318.825Q445.8785 318.71564 446.01913 318.5125Q446.11288 318.34064 446.34726 317.71564Q446.36288 317.6375 446.441 317.46564L444.066 311.23126L445.20663 311.23126L446.5035 314.825Q446.7535 315.5125 446.95663 316.27814Q447.14413 315.54376 447.39413 314.85626L448.72226 311.23126L449.76913 311.23126L447.40976 317.5594Q447.01913 318.575 446.816 318.96564Q446.53476 319.4969 446.15976 319.73126Q445.80038 319.98126 445.30038 319.98126Q445.0035 319.98126 444.6285 319.84064Z" fill-rule="nonzero"/><path fill="#000000" d="M497.21014 317.45L497.21014 308.85626L503.41327 308.85626L503.41327 309.8719L498.35077 309.8719L498.35077 312.4969L503.10077 312.4969L503.10077 313.5125L498.35077 313.5125L498.35077 316.4344L503.6164 316.4344L503.6164 317.45L497.21014 317.45ZM504.35077 317.45L506.6164 314.21564L504.52264 311.23126L505.83514 311.23126L506.78827 312.6844Q507.0539 313.10626 507.22577 313.3875Q507.47577 312.9969 507.69452 312.7L508.7414 311.23126L510.00702 311.23126L507.85077 314.15314L510.16327 317.45L508.88202 317.45L507.60077 315.5125L507.25702 314.9969L505.6164 317.45L504.35077 317.45ZM510.0539 319.84064L510.0539 311.23126L511.00702 311.23126L511.00702 312.02814Q511.35077 311.5594 511.77264 311.325Q512.21014 311.09064 512.8195 311.09064Q513.6164 311.09064 514.22577 311.4969Q514.83514 311.90314 515.132 312.65314Q515.4445 313.40314 515.4445 314.29376Q515.4445 315.2469 515.10077 316.0125Q514.77264 316.77814 514.1164 317.1844Q513.46014 317.59064 512.7414 317.59064Q512.21014 317.59064 511.78827 317.3719Q511.3664 317.1375 511.10077 316.8094L511.10077 319.84064L510.0539 319.84064ZM511.00702 314.3719Q511.00702 315.575 511.4914 316.15314Q511.97577 316.71564 512.66327 316.71564Q513.3664 316.71564 513.8664 316.1219Q514.3664 315.52814 514.3664 314.27814Q514.3664 313.09064 513.882 312.5125Q513.39764 311.91876 512.71014 311.91876Q512.03827 311.91876 511.52264 312.54376Q511.00702 313.16876 511.00702 314.3719ZM517.03827 317.45L517.03827 311.23126L517.9914 311.23126L517.9914 312.16876Q518.35077 311.5125 518.64764 311.3094Q518.96014 311.09064 519.33514 311.09064Q519.8664 311.09064 520.41327 311.41876L520.0539 312.40314Q519.66327 312.16876 519.28827 312.16876Q518.9289 312.16876 518.64764 312.3875Q518.382 312.59064 518.27264 312.96564Q518.08514 313.52814 518.08514 314.1844L518.08514 317.45L517.03827 317.45ZM525.3039 315.45L526.39764 315.575Q526.14764 316.52814 525.4445 317.0594Q524.7414 317.59064 523.66327 317.59064Q522.3039 317.59064 521.4914 316.7469Q520.6945 315.90314 520.6945 314.3875Q520.6945 312.825 521.507 311.96564Q522.3195 311.09064 523.60077 311.09064Q524.85077 311.09064 525.632 311.9344Q526.4289 312.77814 526.4289 314.325Q526.4289 314.41876 526.4289 314.60626L521.78827 314.60626Q521.85077 315.6375 522.3664 316.1844Q522.882 316.71564 523.66327 316.71564Q524.2414 316.71564 524.64764 316.41876Q525.0695 316.10626 525.3039 315.45ZM521.85077 313.7469L525.3195 313.7469Q525.257 312.95 524.9289 312.5594Q524.41327 311.95 523.6164 311.95Q522.882 311.95 522.382 312.4344Q521.89764 312.91876 521.85077 313.7469ZM527.632 315.59064L528.66327 315.4344Q528.757 316.0594 529.14764 316.3875Q529.5539 316.71564 530.28827 316.71564Q531.007 316.71564 531.35077 316.4344Q531.71014 316.1375 531.71014 315.73126Q531.71014 315.3719 531.39764 315.16876Q531.1789 315.02814 530.3195 314.8094Q529.16327 314.5125 528.71014 314.3094Q528.27264 314.09064 528.03827 313.71564Q527.8039 313.34064 527.8039 312.8719Q527.8039 312.46564 527.9914 312.10626Q528.1789 311.7469 528.507 311.5125Q528.757 311.34064 529.1789 311.21564Q529.60077 311.09064 530.10077 311.09064Q530.8195 311.09064 531.3664 311.3094Q531.9289 311.5125 532.1945 311.8719Q532.46014 312.23126 532.5539 312.825L531.52264 312.96564Q531.46014 312.4969 531.1164 312.23126Q530.78827 311.95 530.16327 311.95Q529.4445 311.95 529.132 312.2Q528.8195 312.4344 528.8195 312.7625Q528.8195 312.96564 528.9445 313.1219Q529.08514 313.29376 529.35077 313.40314Q529.507 313.46564 530.28827 313.66876Q531.41327 313.98126 531.85077 314.16876Q532.28827 314.35626 532.53827 314.71564Q532.78827 315.075 532.78827 315.6219Q532.78827 316.15314 532.47577 316.6219Q532.1789 317.075 531.60077 317.34064Q531.02264 317.59064 530.28827 317.59064Q529.0695 317.59064 528.4289 317.09064Q527.8039 316.575 527.632 315.59064ZM534.632 315.59064L535.66327 315.4344Q535.757 316.0594 536.14764 316.3875Q536.5539 316.71564 537.28827 316.71564Q538.007 316.71564 538.35077 316.4344Q538.71014 316.1375 538.71014 315.73126Q538.71014 315.3719 538.39764 315.16876Q538.1789 315.02814 537.3195 314.8094Q536.16327 314.5125 535.71014 314.3094Q535.27264 314.09064 535.03827 313.71564Q534.8039 313.34064 534.8039 312.8719Q534.8039 312.46564 534.9914 312.10626Q535.1789 311.7469 535.507 311.5125Q535.757 311.34064 536.1789 311.21564Q536.60077 311.09064 537.10077 311.09064Q537.8195 311.09064 538.3664 311.3094Q538.9289 311.5125 539.1945 311.8719Q539.46014 312.23126 539.5539 312.825L538.52264 312.96564Q538.46014 312.4969 538.1164 312.23126Q537.78827 311.95 537.16327 311.95Q536.4445 311.95 536.132 312.2Q535.8195 312.4344 535.8195 312.7625Q535.8195 312.96564 535.9445 313.1219Q536.08514 313.29376 536.35077 313.40314Q536.507 313.46564 537.28827 313.66876Q538.41327 313.98126 538.85077 314.16876Q539.28827 314.35626 539.53827 314.71564Q539.78827 315.075 539.78827 315.6219Q539.78827 316.15314 539.47577 316.6219Q539.1789 317.075 538.60077 317.34064Q538.02264 317.59064 537.28827 317.59064Q536.0695 317.59064 535.4289 317.09064Q534.8039 316.575 534.632 315.59064Z" fill-rule="nonzero"/><path fill="#757575" d="M20.128124 37.55L20.128124 23.2375L26.471874 23.2375Q28.378124 23.2375 29.378124 23.628124Q30.378124 24.003124 30.971874 24.9875Q31.565624 25.95625 31.565624 27.14375Q31.565624 28.659374 30.58125 29.70625Q29.596874 30.753124 27.534374 31.034374Q28.284374 31.39375 28.675 31.753124Q29.503124 32.503124 30.253124 33.659374L32.7375 37.55L30.3625 37.55L28.45625 34.565624Q27.628124 33.284374 27.096874 32.596874Q26.565624 31.909374 26.128124 31.64375Q25.70625 31.3625 25.26875 31.253124Q24.940624 31.190624 24.221874 31.190624L22.01875 31.190624L22.01875 37.55L20.128124 37.55ZM22.01875 29.55L26.096874 29.55Q27.39375 29.55 28.1125 29.284374Q28.846874 29.01875 29.221874 28.425Q29.6125 27.83125 29.6125 27.14375Q29.6125 26.128124 28.878124 25.471874Q28.14375 24.815624 26.55 24.815624L22.01875 24.815624L22.01875 29.55ZM34.096874 37.55L34.096874 23.2375L39.4875 23.2375Q40.925 23.2375 41.675 23.3625Q42.721874 23.55 43.440624 24.05Q44.159374 24.534374 44.58125 25.425Q45.01875 26.315624 45.01875 27.378124Q45.01875 29.20625 43.846874 30.471874Q42.690624 31.721874 39.659374 31.721874L35.9875 31.721874L35.9875 37.55L34.096874 37.55ZM35.9875 30.034374L39.690624 30.034374Q41.51875 30.034374 42.284374 29.3625Q43.065624 28.675 43.065624 27.425Q43.065624 26.534374 42.6125 25.89375Q42.159374 25.253124 41.425 25.05Q40.940624 24.925 39.64375 24.925L35.9875 24.925L35.9875 30.034374ZM46.45625 32.95625L48.2375 32.8Q48.3625 33.8625 48.815624 34.55Q49.284374 35.2375 50.253124 35.675Q51.2375 36.096874 52.471874 36.096874Q53.55 36.096874 54.378124 35.784374Q55.20625 35.45625 55.6125 34.89375Q56.01875 34.33125 56.01875 33.659374Q56.01875 32.9875 55.628124 32.4875Q55.2375 31.9875 54.346874 31.64375Q53.76875 31.409374 51.784374 30.940624Q49.815624 30.471874 49.034374 30.05Q48.003124 29.51875 47.503124 28.721874Q47.003124 27.925 47.003124 26.940624Q47.003124 25.846874 47.6125 24.909374Q48.221874 23.971874 49.409374 23.4875Q50.596874 22.9875 52.034374 22.9875Q53.628124 22.9875 54.846874 23.503124Q56.065624 24.01875 56.70625 25.01875Q57.3625 26.003124 57.409374 27.26875L55.596874 27.409374Q55.45625 26.05 54.6125 25.3625Q53.76875 24.659374 52.1125 24.659374Q50.39375 24.659374 49.596874 25.3Q48.815624 25.925 48.815624 26.8Q48.815624 27.58125 49.378124 28.08125Q49.925 28.58125 52.2375 29.096874Q54.55 29.6125 55.409374 30.003124Q56.659374 30.58125 57.253124 31.471874Q57.846874 32.346874 57.846874 33.503124Q57.846874 34.64375 57.190624 35.659374Q56.534374 36.675 55.3 37.2375Q54.08125 37.8 52.55 37.8Q50.6125 37.8 49.3 37.2375Q47.9875 36.659374 47.2375 35.51875Q46.4875 34.378124 46.45625 32.95625ZM59.190624 33.253124L59.190624 31.4875L64.58125 31.4875L64.58125 33.253124L59.190624 33.253124ZM68.78438 37.55L65.6125 27.175L67.425 27.175L69.08125 33.159374L69.69063 35.39375Q69.7375 35.221874 70.22188 33.253124L71.87813 27.175L73.69063 27.175L75.2375 33.190624L75.75313 35.175L76.34688 33.175L78.12813 27.175L79.83125 27.175L76.59688 37.55L74.76875 37.55L73.1125 31.33125L72.72188 29.565624L70.6125 37.55L68.78438 37.55ZM81.87813 25.253124L81.87813 23.2375L83.64375 23.2375L83.64375 25.253124L81.87813 25.253124ZM81.87813 37.55L81.87813 27.175L83.64375 27.175L83.64375 37.55L81.87813 37.55ZM85.15938 34.45625L86.90938 34.175Q87.05 35.221874 87.72188 35.784374Q88.39375 36.33125 89.59688 36.33125Q90.8 36.33125 91.37813 35.846874Q91.97188 35.346874 91.97188 34.690624Q91.97188 34.096874 91.45625 33.753124Q91.09688 33.51875 89.65938 33.159374Q87.72188 32.659374 86.97188 32.315624Q86.2375 31.95625 85.84688 31.33125Q85.45625 30.690624 85.45625 29.925Q85.45625 29.2375 85.76875 28.64375Q86.09688 28.05 86.64375 27.659374Q87.05 27.3625 87.75313 27.159374Q88.47188 26.940624 89.28438 26.940624Q90.50313 26.940624 91.425 27.3Q92.34688 27.64375 92.78438 28.253124Q93.22188 28.846874 93.39375 29.846874L91.675 30.08125Q91.55 29.284374 90.9875 28.846874Q90.425 28.39375 89.40938 28.39375Q88.19063 28.39375 87.675 28.8Q87.15938 29.190624 87.15938 29.721874Q87.15938 30.065624 87.37813 30.346874Q87.58125 30.628124 88.05 30.815624Q88.31563 30.909374 89.59688 31.253124Q91.47188 31.753124 92.20625 32.08125Q92.94063 32.39375 93.3625 33.003124Q93.78438 33.596874 93.78438 34.503124Q93.78438 35.378124 93.26875 36.159374Q92.75313 36.940624 91.78438 37.3625Q90.81563 37.784374 89.59688 37.784374Q87.58125 37.784374 86.51875 36.940624Q85.45625 36.096874 85.15938 34.45625ZM102.97188 34.20625L104.78438 34.440624Q104.3625 36.01875 103.19063 36.909374Q102.03438 37.784374 100.22188 37.784374Q97.95625 37.784374 96.6125 36.39375Q95.28438 34.9875 95.28438 32.45625Q95.28438 29.83125 96.62813 28.39375Q97.97188 26.940624 100.12813 26.940624Q102.20625 26.940624 103.51875 28.3625Q104.84688 29.76875 104.84688 32.346874Q104.84688 32.503124 104.83125 32.815624L97.09688 32.815624Q97.19063 34.51875 98.06563 35.425Q98.94063 36.33125 100.2375 36.33125Q101.20625 36.33125 101.87813 35.83125Q102.56563 35.315624 102.97188 34.20625ZM97.19063 31.3625L102.9875 31.3625Q102.87813 30.065624 102.33125 29.409374Q101.4875 28.39375 100.14375 28.39375Q98.94063 28.39375 98.1125 29.20625Q97.28438 30.003124 97.19063 31.3625ZM112.8625 41.51875L112.8625 27.175L114.47188 27.175L114.47188 28.51875Q115.03438 27.7375 115.7375 27.346874Q116.45625 26.940624 117.47188 26.940624Q118.8 26.940624 119.81563 27.628124Q120.83125 28.315624 121.34688 29.565624Q121.87813 30.8 121.87813 32.284374Q121.87813 33.878124 121.3 35.159374Q120.7375 36.425 119.64375 37.1125Q118.55 37.784374 117.34688 37.784374Q116.47188 37.784374 115.76875 37.409374Q115.08125 37.034374 114.62813 36.471874L114.62813 41.51875L112.8625 41.51875ZM114.45625 32.425Q114.45625 34.425 115.26875 35.378124Q116.08125 36.33125 117.2375 36.33125Q118.40938 36.33125 119.2375 35.346874Q120.08125 34.3625 120.08125 32.26875Q120.08125 30.3 119.25313 29.315624Q118.44063 28.315624 117.31563 28.315624Q116.19063 28.315624 115.31563 29.378124Q114.45625 30.425 114.45625 32.425ZM130.97188 34.20625L132.78438 34.440624Q132.3625 36.01875 131.19063 36.909374Q130.03438 37.784374 128.22188 37.784374Q125.95625 37.784374 124.6125 36.39375Q123.28438 34.9875 123.28438 32.45625Q123.28438 29.83125 124.62813 28.39375Q125.97188 26.940624 128.12813 26.940624Q130.20625 26.940624 131.51875 28.3625Q132.84688 29.76875 132.84688 32.346874Q132.84688 32.503124 132.83125 32.815624L125.09688 32.815624Q125.19063 34.51875 126.06563 35.425Q126.94063 36.33125 128.2375 36.33125Q129.20625 36.33125 129.87813 35.83125Q130.56563 35.315624 130.97188 34.20625ZM125.19063 31.3625L130.9875 31.3625Q130.87813 30.065624 130.33125 29.409374Q129.4875 28.39375 128.14375 28.39375Q126.94063 28.39375 126.1125 29.20625Q125.28438 30.003124 125.19063 31.3625ZM134.84688 37.55L134.84688 27.175L136.425 27.175L136.425 28.753124Q137.03438 27.64375 137.55 27.3Q138.06563 26.940624 138.675 26.940624Q139.56563 26.940624 140.4875 27.503124L139.87813 29.14375Q139.2375 28.753124 138.59688 28.753124Q138.01875 28.753124 137.55 29.1125Q137.09688 29.45625 136.89375 30.065624Q136.6125 31.003124 136.6125 32.1125L136.6125 37.55L134.84688 37.55ZM142.28438 37.55L142.28438 28.55L140.7375 28.55L140.7375 27.175L142.28438 27.175L142.28438 26.08125Q142.28438 25.034374 142.47188 24.51875Q142.72188 23.83125 143.3625 23.409374Q144.00313 22.9875 145.15938 22.9875Q145.90938 22.9875 146.8 23.159374L146.53438 24.690624Q145.9875 24.596874 145.50313 24.596874Q144.70625 24.596874 144.3625 24.940624Q144.03438 25.284374 144.03438 26.221874L144.03438 27.175L146.06563 27.175L146.06563 28.55L144.03438 28.55L144.03438 37.55L142.28438 37.55ZM147.22188 32.3625Q147.22188 29.4875 148.81563 28.096874Q150.15938 26.940624 152.08125 26.940624Q154.22188 26.940624 155.56563 28.346874Q156.925 29.753124 156.925 32.221874Q156.925 34.221874 156.33125 35.378124Q155.7375 36.51875 154.58125 37.159374Q153.44063 37.784374 152.08125 37.784374Q149.89375 37.784374 148.55 36.39375Q147.22188 34.9875 147.22188 32.3625ZM149.01875 32.3625Q149.01875 34.3625 149.87813 35.346874Q150.75313 36.33125 152.08125 36.33125Q153.39375 36.33125 154.25313 35.346874Q155.12813 34.346874 155.12813 32.3Q155.12813 30.378124 154.25313 29.39375Q153.37813 28.39375 152.08125 28.39375Q150.75313 28.39375 149.87813 29.39375Q149.01875 30.378124 149.01875 32.3625ZM158.84688 37.55L158.84688 27.175L160.425 27.175L160.425 28.753124Q161.03438 27.64375 161.55 27.3Q162.06563 26.940624 162.675 26.940624Q163.56563 26.940624 164.4875 27.503124L163.87813 29.14375Q163.2375 28.753124 162.59688 28.753124Q162.01875 28.753124 161.55 29.1125Q161.09688 29.45625 160.89375 30.065624Q160.6125 31.003124 160.6125 32.1125L160.6125 37.55L158.84688 37.55ZM165.8625 37.55L165.8625 27.175L167.44063 27.175L167.44063 28.628124Q167.925 27.878124 168.7375 27.409374Q169.55 26.940624 170.58125 26.940624Q171.7375 26.940624 172.47188 27.425Q173.20625 27.89375 173.51875 28.753124Q174.75313 26.940624 176.72188 26.940624Q178.26875 26.940624 179.09688 27.8Q179.925 28.659374 179.925 30.425L179.925 37.55L178.175 37.55L178.175 31.01875Q178.175 29.95625 178.00313 29.503124Q177.83125 29.034374 177.37813 28.753124Q176.94063 28.471874 176.33125 28.471874Q175.2375 28.471874 174.50313 29.20625Q173.78438 29.925 173.78438 31.51875L173.78438 37.55L172.03438 37.55L172.03438 30.815624Q172.03438 29.64375 171.59688 29.065624Q171.175 28.471874 170.19063 28.471874Q169.45625 28.471874 168.81563 28.8625Q168.19063 29.253124 167.90938 30.003124Q167.62813 30.753124 167.62813 32.175L167.62813 37.55L165.8625 37.55ZM188.64375 36.26875Q187.65938 37.096874 186.75313 37.440624Q185.84688 37.784374 184.81563 37.784374Q183.1125 37.784374 182.19063 36.95625Q181.26875 36.1125 181.26875 34.815624Q181.26875 34.05 181.6125 33.425Q181.97188 32.8 182.53438 32.425Q183.09688 32.034374 183.8 31.83125Q184.31563 31.70625 185.3625 31.565624Q187.4875 31.315624 188.4875 30.971874Q188.50313 30.6125 188.50313 30.503124Q188.50313 29.440624 188.00313 28.9875Q187.33125 28.39375 186.00313 28.39375Q184.75313 28.39375 184.15938 28.83125Q183.58125 29.26875 183.3 30.378124L181.58125 30.14375Q181.81563 29.034374 182.34688 28.3625Q182.87813 27.675 183.89375 27.315624Q184.90938 26.940624 186.25313 26.940624Q187.58125 26.940624 188.40938 27.253124Q189.2375 27.565624 189.62813 28.05Q190.01875 28.51875 190.175 29.2375Q190.26875 29.690624 190.26875 30.8625L190.26875 33.20625Q190.26875 35.659374 190.37813 36.315624Q190.4875 36.95625 190.83125 37.55L188.9875 37.55Q188.72188 37.003124 188.64375 36.26875ZM188.4875 32.346874Q187.53438 32.7375 185.6125 33.003124Q184.53438 33.159374 184.08125 33.3625Q183.64375 33.55 183.39375 33.925Q183.14375 34.3 183.14375 34.76875Q183.14375 35.471874 183.675 35.940624Q184.20625 36.409374 185.2375 36.409374Q186.25313 36.409374 187.03438 35.971874Q187.83125 35.51875 188.20625 34.753124Q188.4875 34.14375 188.4875 32.9875L188.4875 32.346874ZM192.8625 37.55L192.8625 27.175L194.45625 27.175L194.45625 28.659374Q195.59688 26.940624 197.75313 26.940624Q198.69063 26.940624 199.47188 27.284374Q200.26875 27.6125 200.65938 28.159374Q201.05 28.70625 201.20625 29.45625Q201.3 29.95625 201.3 31.175L201.3 37.55L199.53438 37.55L199.53438 31.2375Q199.53438 30.159374 199.33125 29.628124Q199.12813 29.096874 198.59688 28.784374Q198.08125 28.471874 197.37813 28.471874Q196.25313 28.471874 195.44063 29.190624Q194.62813 29.89375 194.62813 31.878124L194.62813 37.55L192.8625 37.55ZM209.64375 33.753124L211.3625 33.971874Q211.08125 35.76875 209.90938 36.784374Q208.75313 37.784374 207.05 37.784374Q204.925 37.784374 203.62813 36.39375Q202.33125 35.003124 202.33125 32.409374Q202.33125 30.721874 202.87813 29.471874Q203.44063 28.20625 204.58125 27.58125Q205.72188 26.940624 207.06563 26.940624Q208.75313 26.940624 209.81563 27.8Q210.89375 28.659374 211.20625 30.221874L209.4875 30.4875Q209.25313 29.440624 208.62813 28.925Q208.00313 28.39375 207.12813 28.39375Q205.8 28.39375 204.97188 29.346874Q204.14375 30.3 204.14375 32.346874Q204.14375 34.440624 204.94063 35.39375Q205.7375 36.33125 207.03438 36.33125Q208.06563 36.33125 208.75313 35.70625Q209.45625 35.065624 209.64375 33.753124ZM219.97188 34.20625L221.78438 34.440624Q221.3625 36.01875 220.19063 36.909374Q219.03438 37.784374 217.22188 37.784374Q214.95625 37.784374 213.6125 36.39375Q212.28438 34.9875 212.28438 32.45625Q212.28438 29.83125 213.62813 28.39375Q214.97188 26.940624 217.12813 26.940624Q219.20625 26.940624 220.51875 28.3625Q221.84688 29.76875 221.84688 32.346874Q221.84688 32.503124 221.83125 32.815624L214.09688 32.815624Q214.19063 34.51875 215.06563 35.425Q215.94063 36.33125 217.2375 36.33125Q218.20625 36.33125 218.87813 35.83125Q219.56563 35.315624 219.97188 34.20625ZM214.19063 31.3625L219.9875 31.3625Q219.87813 30.065624 219.33125 29.409374Q218.4875 28.39375 217.14375 28.39375Q215.94063 28.39375 215.1125 29.20625Q214.28438 30.003124 214.19063 31.3625ZM224.3625 29.175L224.3625 27.175L226.3625 27.175L226.3625 29.175L224.3625 29.175ZM224.3625 37.55L224.3625 35.55L226.3625 35.55L226.3625 37.55L224.3625 37.55Z" fill-rule="nonzero"/></svg>